<svg width="176" height="168" viewBox="0 0 176 168" fill="none" xmlns="http://www.w3.org/2000/svg">
<g clip-path="url(#clip0_2_44)">
<path d="M88.0504 147.462L20.0298 87.8303C-16.9379 52.0516 37.4047 -16.6438 88.0504 38.9327C138.696 -16.6438 192.792 52.29 156.071 87.8303L88.0504 147.462Z" fill="#79EE8D"/>
<path fill-rule="evenodd" clip-rule="evenodd" d="M88.0499 137.279L25.494 82.4382C10.7849 68.0606 13.8951 46.7717 26.7592 34.4092C33.0243 28.3883 41.2408 24.9415 50.2812 25.5756C59.3277 26.2099 70.4316 31.0272 82.1217 43.8554C83.614 45.493 85.7761 46.4332 88.0499 46.4332C90.3236 46.4332 92.4859 45.493 93.9781 43.8554C105.669 31.0262 116.753 26.2289 125.772 25.6099C134.785 24.9913 142.98 28.45 149.237 34.4878C162.102 46.9012 165.176 68.1938 150.606 82.4383L88.0499 137.279ZM51.4326 10.6159C63.6224 11.4707 76.1419 17.0494 88.0499 28.0331C99.9546 17.0531 112.464 11.4846 124.645 10.6486C138.872 9.67201 151.401 15.2476 160.409 23.9386C178.035 40.9465 183.667 71.8018 161.665 93.0972C161.573 93.1852 161.48 93.2711 161.386 93.3546L93.3646 152.986C90.359 155.621 85.7407 155.621 82.7351 152.986L14.7146 93.3546C14.6193 93.2711 14.5262 93.1852 14.4353 93.0972C-7.67571 71.6974 -2.07903 40.8379 15.6101 23.8384C24.6403 15.1602 37.195 9.61742 51.4326 10.6159ZM83.4317 57.061C82.1493 54.6126 79.5712 53.0256 76.7056 52.9206C73.8401 52.8155 71.1421 54.209 69.6666 56.5564L58.9912 73.5401H44.1898C39.8504 73.5401 36.3327 76.8979 36.3327 81.0401C36.3327 85.1821 39.8504 88.5401 44.1898 88.5401H63.4398C66.1998 88.5401 68.7573 87.1578 70.1772 84.8988L75.7774 75.9893L89.0193 101.269C90.1629 103.452 92.348 104.968 94.8766 105.331C97.4052 105.695 99.961 104.861 101.728 103.096L116.299 88.5401H131.796C136.136 88.5401 139.653 85.1821 139.653 81.0401C139.653 76.8979 136.136 73.5401 131.796 73.5401H112.94C110.794 73.5401 108.742 74.3777 107.259 75.8586L98.0808 85.0273L83.4317 57.061Z" fill="#0C098C"/>
</g>
<defs>
<clipPath id="clip0_2_44">
<rect width="176" height="168" fill="white"/>
</clipPath>
</defs>
</svg>
